<svg xmlns="http://www.w3.org/2000/svg" xmlns:xlink="http://www.w3.org/1999/xlink" width="500" zoomAndPan="magnify" viewBox="0 0 375 374.999991" height="500" preserveAspectRatio="xMidYMid meet" version="1.0"><defs><g/><clipPath id="de8c8adb52"><path d="M 120.847656 77 L 178 77 L 178 173 L 120.847656 173 Z M 120.847656 77 " clip-rule="nonzero"/></clipPath><clipPath id="1a005c25e0"><path d="M 203.417969 98 L 296.992188 98 L 296.992188 190.507812 L 203.417969 190.507812 Z M 203.417969 98 " clip-rule="nonzero"/></clipPath><clipPath id="cb52eeddd4"><path d="M 132.433594 236.515625 L 231.695312 236.515625 L 231.695312 269.574219 L 132.433594 269.574219 Z M 132.433594 236.515625 " clip-rule="nonzero"/></clipPath></defs><path fill="#545454" d="M 200.15625 236.765625 C 200.027344 236.90625 199.898438 237.042969 199.773438 237.175781 C 198.464844 238.574219 197.433594 239.675781 196.730469 240.425781 C 196.503906 240.667969 196.308594 240.875 196.148438 241.042969 C 194.636719 240.027344 193.125 239.019531 191.613281 238.039062 C 191.207031 237.773438 190.792969 237.511719 190.382812 237.25 C 190.105469 237.078125 189.832031 236.902344 189.554688 236.730469 C 191.1875 215.074219 182.699219 188.316406 177.324219 165.324219 C 173.46875 148.835938 174.0625 133.652344 175.296875 123.617188 C 176.140625 122.882812 176.898438 122.261719 177.539062 121.757812 C 177.695312 121.882812 177.863281 122.011719 178.035156 122.152344 C 176.960938 132.816406 177.082031 150.199219 184.84375 168.945312 C 196.722656 197.644531 199.625 222.453125 200.15625 236.765625 " fill-opacity="1" fill-rule="nonzero"/><path fill="#545454" d="M 177.539062 111.324219 L 179.875 111.324219 C 179.875 111.324219 178.714844 115.386719 178.035156 122.152344 C 177.863281 122.011719 177.695312 121.882812 177.539062 121.757812 C 176.898438 122.261719 176.140625 122.882812 175.296875 123.617188 C 176.230469 115.984375 177.539062 111.324219 177.539062 111.324219 " fill-opacity="1" fill-rule="nonzero"/><g clip-path="url(#de8c8adb52)"><path fill="#545454" d="M 177.539062 103.414062 L 177.539062 121.757812 C 176.898438 122.261719 176.140625 122.882812 175.296875 123.617188 C 172.28125 126.238281 168.121094 130.320312 163.898438 135.941406 L 164.289062 128.28125 L 162.21875 138.257812 C 159.609375 141.980469 157.03125 146.300781 154.730469 151.226562 L 153.792969 142.765625 L 153.285156 154.503906 C 151.066406 159.828125 149.199219 165.792969 147.964844 172.429688 C 147.964844 172.429688 140.304688 136.21875 168.386719 117.683594 C 168.386719 117.683594 166.109375 117.351562 162.390625 117.207031 L 165.867188 112.328125 L 161.144531 117.171875 C 158.171875 117.097656 154.460938 117.167969 150.34375 117.585938 L 154.539062 111.695312 L 148.605469 117.78125 C 144.308594 118.308594 139.648438 119.234375 134.972656 120.773438 L 140.015625 113.691406 L 132.117188 121.796875 C 128.285156 123.273438 124.5 125.199219 120.945312 127.695312 C 120.945312 127.695312 131.050781 98.726562 169.027344 106.183594 C 169.027344 106.183594 166.585938 101.433594 160.492188 95.46875 L 165.746094 94.507812 L 159.664062 94.667969 C 157.757812 92.863281 155.519531 90.96875 152.929688 89.066406 L 157.554688 88.222656 L 151.960938 88.371094 C 149.40625 86.5625 146.523438 84.765625 143.28125 83.050781 L 149.363281 81.941406 L 141.519531 82.148438 C 138.921875 80.855469 136.113281 79.625 133.070312 78.492188 C 133.070312 78.492188 162.804688 71.566406 177.539062 103.414062 " fill-opacity="1" fill-rule="nonzero"/></g><path fill="#545454" d="M 234.128906 127.695312 L 234.097656 127.675781 C 230.554688 125.1875 226.773438 123.269531 222.960938 121.796875 L 215.058594 113.691406 L 220.101562 120.773438 C 215.425781 119.234375 210.765625 118.308594 206.46875 117.78125 L 200.539062 111.695312 L 204.734375 117.585938 C 200.617188 117.167969 196.902344 117.097656 193.929688 117.171875 L 189.207031 112.328125 L 192.683594 117.207031 C 188.964844 117.351562 186.6875 117.683594 186.6875 117.683594 C 196.125 123.914062 201.527344 132.140625 204.535156 140.320312 C 204.65625 140.644531 204.773438 140.96875 204.886719 141.296875 C 210.351562 157.105469 207.113281 172.429688 207.113281 172.429688 C 205.875 165.792969 204.011719 159.828125 201.789062 154.503906 L 201.28125 142.765625 L 200.34375 151.226562 C 198.046875 146.300781 195.464844 141.980469 192.855469 138.257812 L 190.785156 128.28125 L 191.175781 135.941406 C 186.0625 129.136719 181.042969 124.585938 178.035156 122.152344 C 177.863281 122.011719 177.695312 121.882812 177.539062 121.757812 L 177.539062 103.414062 C 192.269531 71.566406 222.003906 78.492188 222.003906 78.492188 C 218.964844 79.625 216.152344 80.855469 213.554688 82.148438 L 205.707031 81.941406 L 211.792969 83.050781 C 208.550781 84.765625 205.664062 86.5625 203.113281 88.371094 L 197.519531 88.222656 L 202.144531 89.066406 C 199.550781 90.96875 197.316406 92.863281 195.410156 94.667969 L 189.324219 94.507812 L 194.582031 95.46875 C 188.492188 101.433594 186.046875 106.183594 186.046875 106.183594 C 223.445312 98.839844 233.8125 126.816406 234.125 127.675781 L 234.128906 127.695312 " fill-opacity="1" fill-rule="nonzero"/><g clip-path="url(#1a005c25e0)"><path fill="#545454" d="M 288.550781 150.679688 L 283.101562 142.933594 L 286.328125 149.457031 C 284.640625 148.582031 282.945312 147.816406 281.257812 147.148438 C 277.277344 145.5625 273.839844 142.855469 271.371094 139.347656 L 274.054688 144.773438 C 272.757812 144.425781 271.503906 144.128906 270.308594 143.875 C 266.917969 143.164062 263.921875 141.195312 261.929688 138.355469 L 264.152344 142.851562 C 261.058594 142.472656 259.132812 142.445312 259.132812 142.445312 C 279.867188 161.503906 268.71875 190.398438 268.71875 190.398438 C 268.621094 186.445312 268.226562 182.722656 267.613281 179.234375 C 267.039062 175.988281 266.964844 172.675781 267.347656 169.398438 L 267.851562 165.113281 L 265.949219 171.980469 C 265.398438 170.042969 264.789062 168.195312 264.132812 166.441406 C 262.371094 161.726562 261.332031 156.773438 261.109375 151.746094 L 260.410156 158.125 C 257.460938 152.519531 254.335938 148.402344 252.160156 145.859375 C 251.746094 145.378906 251.367188 144.953125 251.03125 144.589844 C 250.78125 144.726562 250.511719 144.878906 250.226562 145.046875 C 247.382812 146.703125 242.804688 149.742188 237.875 154.488281 L 239.21875 148.210938 C 237.421875 152.914062 234.882812 157.285156 231.730469 161.207031 C 230.558594 162.664062 229.398438 164.222656 228.265625 165.890625 L 228.617188 158.777344 L 227.75 163.003906 C 227.082031 166.230469 225.972656 169.351562 224.40625 172.257812 C 222.730469 175.375 221.1875 178.785156 219.855469 182.503906 C 219.855469 182.503906 218.347656 151.566406 244.015625 140.003906 C 244.015625 140.003906 242.179688 139.425781 239.121094 138.808594 L 242.644531 135.242188 C 239.863281 137.304688 236.398438 138.234375 232.953125 137.84375 C 231.742188 137.707031 230.460938 137.59375 229.117188 137.511719 L 233.371094 133.207031 C 229.925781 135.761719 225.808594 137.25 221.535156 137.5 C 219.722656 137.605469 217.871094 137.796875 215.996094 138.09375 L 221.105469 132.917969 L 213.503906 138.558594 C 210.617188 139.167969 207.71875 140.054688 204.886719 141.296875 C 204.417969 141.503906 203.953125 141.714844 203.488281 141.941406 C 203.515625 141.894531 203.851562 141.277344 204.535156 140.320312 C 207.457031 136.203125 216.660156 125.820312 234.097656 127.675781 L 234.125 127.675781 C 237.746094 128.0625 241.722656 128.976562 246.070312 130.585938 C 246.027344 130.453125 244.621094 126.25 240.449219 120.59375 L 244.917969 120.5 C 241.839844 120.089844 239.007812 118.597656 236.925781 116.285156 C 236.335938 115.632812 235.714844 114.96875 235.054688 114.300781 L 238.988281 114.21875 C 236.144531 113.835938 233.464844 112.660156 231.289062 110.789062 C 230.226562 109.871094 229.09375 108.953125 227.882812 108.039062 L 233.058594 107.933594 L 232.523438 107.863281 C 228.878906 107.375 225.382812 106.132812 222.25 104.207031 C 221.539062 103.773438 220.808594 103.339844 220.054688 102.910156 C 220.054688 102.910156 241.972656 101.410156 251.480469 123.742188 C 251.503906 121.597656 251.261719 119.890625 251.261719 119.890625 L 254.226562 122.332031 L 253.300781 121.042969 C 252.503906 119.941406 251.839844 118.757812 251.3125 117.515625 C 250.785156 116.269531 250.398438 114.964844 250.164062 113.628906 L 253.671875 116.167969 L 253.019531 115.339844 C 250.785156 112.527344 249.152344 109.289062 248.210938 105.820312 L 251.980469 108.40625 L 251.402344 107.796875 C 250.097656 106.425781 248.949219 104.917969 247.980469 103.304688 C 247.015625 101.695312 246.222656 99.972656 245.632812 98.175781 C 257 106.335938 258.457031 116.828125 257.792969 123.949219 C 273.730469 106.671875 293.523438 114.78125 293.523438 114.78125 C 292.679688 114.949219 291.847656 115.128906 291.035156 115.320312 C 287.457031 116.160156 283.75 116.238281 280.136719 115.554688 L 279.605469 115.453125 L 284.484375 117.183594 C 283.050781 117.667969 281.6875 118.183594 280.386719 118.71875 C 277.738281 119.8125 274.820312 120.085938 272.003906 119.550781 L 275.710938 120.871094 C 274.875 121.296875 274.074219 121.730469 273.308594 122.164062 C 270.609375 123.699219 267.453125 124.230469 264.402344 123.648438 L 268.613281 125.144531 C 262.785156 129.261719 260.136719 132.859375 260.136719 132.859375 C 292.5 131.765625 296.992188 157.046875 296.992188 157.046875 C 294.390625 154.507812 291.515625 152.417969 288.550781 150.679688 " fill-opacity="1" fill-rule="nonzero"/></g><path fill="#545454" d="M 251.03125 144.589844 C 250.78125 144.726562 250.511719 144.878906 250.226562 145.046875 C 250.199219 145.382812 250.167969 145.722656 250.121094 146.0625 C 249.90625 147.816406 249.730469 149.625 249.398438 151.464844 C 248.847656 155.164062 247.953125 159.011719 246.90625 162.9375 C 246.621094 163.914062 246.335938 164.898438 246.046875 165.890625 C 245.914062 166.386719 245.746094 166.878906 245.582031 167.371094 C 245.417969 167.867188 245.253906 168.359375 245.089844 168.855469 C 244.925781 169.351562 244.757812 169.851562 244.59375 170.347656 C 244.433594 170.847656 244.234375 171.335938 244.050781 171.832031 C 243.679688 172.824219 243.308594 173.816406 242.9375 174.8125 C 242.117188 176.78125 241.328125 178.785156 240.417969 180.707031 C 239.972656 181.679688 239.558594 182.644531 239.050781 183.636719 C 238.566406 184.609375 238.085938 185.582031 237.605469 186.554688 C 235.601562 190.386719 233.449219 194.136719 231.203125 197.75 C 228.921875 201.34375 226.574219 204.816406 224.195312 208.097656 C 221.796875 211.375 219.425781 214.5 217.074219 217.390625 C 214.742188 220.296875 212.457031 222.984375 210.335938 225.457031 C 209.261719 226.683594 208.226562 227.855469 207.246094 228.972656 C 206.257812 230.078125 205.3125 231.128906 204.425781 232.117188 C 202.808594 233.890625 201.375 235.457031 200.15625 236.765625 C 200.027344 236.90625 199.898438 237.042969 199.773438 237.175781 C 198.464844 238.574219 197.433594 239.675781 196.730469 240.425781 C 196.503906 240.667969 196.308594 240.875 196.148438 241.042969 C 197.511719 241.949219 198.875 242.863281 200.25 243.757812 C 200.660156 244.027344 201.074219 244.292969 201.484375 244.558594 C 202.648438 245.3125 203.824219 246.039062 205.007812 246.738281 C 205.625 245.976562 206.425781 244.984375 207.386719 243.785156 C 208.613281 242.265625 210.074219 240.410156 211.742188 238.277344 C 212.570312 237.203125 213.453125 236.058594 214.378906 234.855469 C 215.296875 233.636719 216.261719 232.359375 217.265625 231.023438 C 219.25 228.328125 221.390625 225.402344 223.554688 222.230469 C 225.753906 219.078125 227.957031 215.671875 230.179688 212.109375 C 232.382812 208.535156 234.539062 204.765625 236.617188 200.871094 C 238.660156 196.960938 240.597656 192.910156 242.371094 188.792969 C 242.789062 187.761719 243.207031 186.726562 243.628906 185.695312 C 244.050781 184.695312 244.429688 183.609375 244.820312 182.554688 C 245.632812 180.445312 246.285156 178.328125 246.980469 176.234375 C 247.289062 175.179688 247.59375 174.121094 247.898438 173.074219 C 248.046875 172.550781 248.210938 172.03125 248.339844 171.503906 C 248.476562 170.976562 248.605469 170.449219 248.738281 169.929688 C 248.867188 169.402344 249 168.882812 249.128906 168.363281 C 249.261719 167.84375 249.394531 167.328125 249.496094 166.800781 C 249.714844 165.761719 249.933594 164.730469 250.148438 163.703125 C 250.925781 159.585938 251.542969 155.585938 251.824219 151.761719 C 252.019531 149.859375 252.066406 147.992188 252.144531 146.195312 C 252.152344 146.082031 252.15625 145.972656 252.160156 145.859375 C 251.746094 145.378906 251.367188 144.953125 251.03125 144.589844 " fill-opacity="1" fill-rule="nonzero"/><path fill="#545454" d="M 252.160156 145.859375 C 251.746094 145.378906 251.367188 144.953125 251.03125 144.589844 C 250.78125 144.726562 250.511719 144.878906 250.226562 145.046875 C 250.273438 144.519531 250.300781 143.992188 250.34375 143.476562 C 250.402344 142.625 250.464844 141.792969 250.519531 140.976562 C 250.566406 139.34375 250.609375 137.773438 250.625 136.277344 C 250.582031 134.785156 250.558594 133.367188 250.507812 132.03125 C 250.40625 130.699219 250.308594 129.457031 250.21875 128.300781 C 250.1875 127.722656 250.089844 127.179688 250.027344 126.652344 C 249.960938 126.125 249.890625 125.625 249.832031 125.148438 C 249.769531 124.671875 249.710938 124.21875 249.65625 123.792969 C 249.605469 123.371094 249.511719 122.980469 249.449219 122.609375 C 249.3125 121.875 249.195312 121.25 249.101562 120.742188 C 248.921875 119.792969 248.820312 119.257812 248.8125 119.195312 C 248.828125 119.265625 248.96875 119.792969 249.214844 120.71875 C 249.347656 121.214844 249.511719 121.832031 249.703125 122.558594 C 249.792969 122.921875 249.917969 123.304688 250 123.730469 C 250.085938 124.148438 250.179688 124.59375 250.277344 125.070312 C 250.375 125.539062 250.476562 126.039062 250.589844 126.5625 C 250.6875 127.085938 250.828125 127.632812 250.90625 128.207031 C 251.078125 129.363281 251.269531 130.613281 251.476562 131.945312 C 251.628906 133.28125 251.761719 134.714844 251.917969 136.222656 C 252.015625 137.734375 252.085938 139.328125 252.167969 140.996094 C 252.167969 141.828125 252.171875 142.679688 252.175781 143.546875 C 252.175781 144.304688 252.195312 145.078125 252.160156 145.859375 " fill-opacity="1" fill-rule="nonzero"/><g clip-path="url(#cb52eeddd4)"><path fill="#545454" d="M 231.433594 265.960938 C 231.433594 265.960938 231.324219 266.03125 231.113281 266.171875 C 231.007812 266.238281 230.878906 266.324219 230.722656 266.425781 C 230.570312 266.53125 230.394531 266.652344 230.175781 266.765625 C 229.960938 266.886719 229.71875 267.023438 229.453125 267.167969 C 229.320312 267.25 229.175781 267.3125 229.027344 267.382812 C 228.875 267.453125 228.722656 267.527344 228.558594 267.601562 C 228.234375 267.765625 227.875 267.90625 227.492188 268.054688 C 227.296875 268.128906 227.101562 268.214844 226.890625 268.28125 C 226.683594 268.351562 226.46875 268.421875 226.246094 268.492188 C 225.804688 268.644531 225.328125 268.765625 224.824219 268.894531 C 224.574219 268.964844 224.316406 269.011719 224.050781 269.0625 C 223.785156 269.117188 223.511719 269.175781 223.234375 269.222656 C 222.675781 269.304688 222.089844 269.414062 221.476562 269.453125 C 221.171875 269.476562 220.859375 269.519531 220.542969 269.53125 C 220.226562 269.542969 219.902344 269.558594 219.574219 269.574219 C 218.253906 269.605469 216.847656 269.535156 215.371094 269.367188 C 215.003906 269.316406 214.632812 269.269531 214.253906 269.210938 C 213.878906 269.144531 213.496094 269.074219 213.113281 269.003906 C 212.726562 268.929688 212.34375 268.835938 211.953125 268.75 L 211.660156 268.683594 C 211.566406 268.652344 211.613281 268.667969 211.585938 268.660156 L 211.480469 268.632812 L 211.339844 268.59375 C 211.15625 268.546875 210.972656 268.496094 210.785156 268.449219 C 210.410156 268.347656 210.035156 268.253906 209.648438 268.144531 C 209.25 268.015625 208.847656 267.882812 208.441406 267.75 C 207.609375 267.496094 206.832031 267.183594 206.007812 266.886719 C 204.390625 266.261719 202.75 265.53125 201.109375 264.714844 C 199.457031 263.917969 197.828125 262.988281 196.179688 262.035156 C 195.769531 261.792969 195.355469 261.550781 194.941406 261.304688 C 194.535156 261.054688 194.125 260.800781 193.714844 260.546875 C 193.300781 260.292969 192.894531 260.035156 192.484375 259.773438 C 192.078125 259.515625 191.664062 259.25 191.257812 258.984375 C 187.980469 256.863281 184.710938 254.605469 181.382812 252.46875 C 179.722656 251.390625 178.039062 250.375 176.339844 249.402344 C 175.914062 249.167969 175.492188 248.914062 175.058594 248.691406 C 174.628906 248.464844 174.199219 248.238281 173.769531 248.007812 C 172.902344 247.578125 172.039062 247.136719 171.160156 246.757812 C 167.664062 245.160156 164.046875 244.042969 160.394531 243.488281 L 160.050781 243.429688 C 159.9375 243.410156 159.820312 243.402344 159.707031 243.386719 L 159.019531 243.308594 C 158.5625 243.257812 158.109375 243.191406 157.648438 243.175781 C 157.191406 243.148438 156.734375 243.117188 156.277344 243.085938 L 156.234375 243.082031 C 156.253906 243.082031 156.128906 243.082031 156.265625 243.082031 L 155.984375 243.078125 L 155.613281 243.074219 L 155.238281 243.070312 L 154.945312 243.082031 L 154.351562 243.097656 C 154.136719 243.113281 153.921875 243.128906 153.707031 243.140625 C 153.492188 243.152344 153.28125 243.183594 153.066406 243.203125 C 152.851562 243.230469 152.636719 243.246094 152.421875 243.28125 C 152 243.347656 151.570312 243.40625 151.148438 243.492188 C 150.9375 243.535156 150.726562 243.566406 150.515625 243.617188 C 150.308594 243.667969 150.097656 243.714844 149.890625 243.765625 C 148.222656 244.167969 146.628906 244.75 145.136719 245.445312 C 143.652344 246.15625 142.296875 247.007812 141.101562 247.964844 C 139.914062 248.925781 138.933594 250.019531 138.164062 251.179688 C 137.394531 252.34375 136.898438 253.597656 136.617188 254.871094 C 136.328125 256.144531 136.300781 257.441406 136.433594 258.691406 C 136.449219 258.847656 136.464844 259.003906 136.480469 259.15625 C 136.503906 259.3125 136.539062 259.464844 136.5625 259.617188 C 136.589844 259.769531 136.617188 259.921875 136.648438 260.074219 L 136.6875 260.300781 C 136.648438 260.195312 136.679688 260.289062 136.675781 260.273438 L 136.699219 260.367188 L 136.734375 260.488281 C 136.820312 260.804688 136.90625 261.15625 136.996094 261.375 C 137.039062 261.5 137.082031 261.625 137.121094 261.75 C 137.160156 261.875 137.226562 262.007812 137.277344 262.136719 C 137.707031 263.171875 138.292969 264.078125 138.914062 264.867188 C 139.539062 265.648438 140.226562 266.296875 140.90625 266.808594 C 142.257812 267.855469 143.574219 268.351562 144.480469 268.617188 C 144.710938 268.675781 144.917969 268.738281 145.09375 268.777344 C 145.273438 268.808594 145.429688 268.835938 145.550781 268.859375 C 145.796875 268.902344 145.925781 268.925781 145.925781 268.925781 C 145.925781 268.925781 145.796875 268.9375 145.546875 268.964844 C 145.421875 268.976562 145.261719 268.992188 145.074219 269.007812 C 144.890625 269.019531 144.671875 269.011719 144.425781 269.011719 C 144.300781 269.007812 144.167969 269.015625 144.03125 269.003906 C 143.890625 268.988281 143.746094 268.972656 143.59375 268.960938 C 143.441406 268.941406 143.277344 268.933594 143.113281 268.902344 C 142.949219 268.871094 142.777344 268.835938 142.597656 268.800781 C 142.507812 268.785156 142.414062 268.765625 142.324219 268.746094 C 142.230469 268.726562 142.136719 268.695312 142.042969 268.671875 C 141.851562 268.617188 141.65625 268.558594 141.453125 268.5 C 141.25 268.4375 141.050781 268.351562 140.839844 268.273438 C 140.734375 268.230469 140.625 268.191406 140.515625 268.148438 C 140.414062 268.097656 140.304688 268.046875 140.199219 267.996094 C 139.984375 267.890625 139.753906 267.792969 139.535156 267.667969 C 139.316406 267.542969 139.089844 267.410156 138.859375 267.273438 C 138.636719 267.132812 138.414062 266.972656 138.179688 266.8125 C 138.125 266.773438 138.066406 266.730469 138.007812 266.691406 C 137.953125 266.644531 137.894531 266.601562 137.839844 266.554688 C 137.726562 266.464844 137.617188 266.375 137.5 266.28125 C 136.589844 265.53125 135.714844 264.578125 134.941406 263.40625 C 134.847656 263.257812 134.746094 263.121094 134.652344 262.957031 C 134.5625 262.792969 134.46875 262.625 134.378906 262.453125 C 134.179688 262.09375 134.066406 261.816406 133.921875 261.507812 L 133.871094 261.394531 L 133.828125 261.308594 C 133.816406 261.273438 133.839844 261.347656 133.796875 261.222656 L 133.703125 260.960938 C 133.640625 260.789062 133.578125 260.613281 133.511719 260.433594 C 133.449219 260.257812 133.382812 260.082031 133.324219 259.898438 C 133.273438 259.710938 133.222656 259.523438 133.167969 259.335938 C 132.75 257.828125 132.539062 256.132812 132.664062 254.34375 C 132.789062 252.554688 133.28125 250.691406 134.132812 248.945312 C 134.988281 247.199219 136.1875 245.578125 137.601562 244.144531 C 137.78125 243.96875 137.964844 243.792969 138.144531 243.621094 L 138.417969 243.355469 L 138.707031 243.109375 C 138.902344 242.945312 139.09375 242.78125 139.289062 242.613281 C 139.484375 242.453125 139.691406 242.304688 139.890625 242.144531 C 140.292969 241.824219 140.714844 241.542969 141.140625 241.25 C 141.351562 241.097656 141.574219 240.972656 141.792969 240.832031 C 142.011719 240.699219 142.226562 240.554688 142.453125 240.425781 C 142.679688 240.300781 142.90625 240.175781 143.132812 240.046875 C 143.246094 239.984375 143.359375 239.917969 143.472656 239.855469 L 143.820312 239.679688 C 144.054688 239.566406 144.289062 239.445312 144.523438 239.332031 C 144.761719 239.222656 145.003906 239.117188 145.242188 239.007812 C 145.71875 238.785156 146.214844 238.601562 146.707031 238.402344 C 146.953125 238.304688 147.207031 238.222656 147.460938 238.132812 C 147.714844 238.046875 147.964844 237.953125 148.222656 237.878906 C 148.476562 237.800781 148.734375 237.722656 148.992188 237.648438 C 149.25 237.566406 149.515625 237.507812 149.777344 237.4375 C 150.296875 237.289062 150.835938 237.1875 151.371094 237.070312 C 151.636719 237.015625 151.910156 236.976562 152.183594 236.929688 C 152.457031 236.882812 152.726562 236.832031 153.003906 236.804688 C 153.28125 236.769531 153.558594 236.734375 153.835938 236.699219 C 154.121094 236.667969 154.429688 236.652344 154.726562 236.628906 L 155.175781 236.597656 L 155.921875 236.574219 L 156.109375 236.566406 L 156.378906 236.566406 C 156.917969 236.578125 157.460938 236.585938 158.003906 236.597656 C 158.550781 236.597656 159.09375 236.652344 159.640625 236.695312 L 160.460938 236.761719 C 160.597656 236.773438 160.734375 236.78125 160.871094 236.796875 L 161.28125 236.851562 C 165.65625 237.371094 169.996094 238.660156 173.984375 240.480469 C 174.988281 240.921875 175.957031 241.421875 176.929688 241.910156 C 177.40625 242.167969 177.878906 242.425781 178.355469 242.683594 C 178.832031 242.941406 179.285156 243.222656 179.75 243.488281 L 180.441406 243.894531 L 181.125 244.3125 C 181.570312 244.59375 182.03125 244.871094 182.464844 245.160156 C 182.90625 245.449219 183.347656 245.734375 183.789062 246.023438 C 184.21875 246.316406 184.648438 246.609375 185.078125 246.902344 C 188.496094 249.253906 191.671875 251.691406 194.734375 253.976562 C 197.789062 256.253906 200.730469 258.398438 203.625 260.207031 C 204.339844 260.675781 205.066406 261.09375 205.777344 261.519531 C 206.128906 261.738281 206.492188 261.917969 206.847656 262.121094 C 207.203125 262.3125 207.550781 262.527344 207.90625 262.703125 C 208.609375 263.0625 209.3125 263.453125 209.988281 263.753906 C 210.328125 263.917969 210.664062 264.074219 210.996094 264.234375 C 211.359375 264.386719 211.71875 264.539062 212.074219 264.691406 C 214.753906 265.871094 217.359375 266.554688 219.730469 266.933594 C 220.914062 267.117188 222.039062 267.191406 223.085938 267.238281 C 224.128906 267.253906 225.097656 267.230469 225.972656 267.144531 C 227.71875 266.976562 229.09375 266.667969 230.011719 266.40625 C 230.246094 266.347656 230.449219 266.273438 230.625 266.21875 C 230.800781 266.164062 230.949219 266.117188 231.070312 266.074219 C 231.308594 266 231.433594 265.960938 231.433594 265.960938 " fill-opacity="1" fill-rule="nonzero"/></g><path fill="#545454" d="M 250.203125 242.683594 C 250.078125 244.472656 249.589844 246.335938 248.738281 248.085938 C 247.878906 249.828125 246.679688 251.445312 245.265625 252.882812 C 245.085938 253.058594 244.90625 253.234375 244.726562 253.40625 L 244.449219 253.671875 L 244.160156 253.917969 C 243.96875 254.082031 243.773438 254.246094 243.582031 254.414062 C 243.382812 254.574219 243.179688 254.722656 242.980469 254.882812 C 242.578125 255.199219 242.152344 255.484375 241.730469 255.777344 C 241.515625 255.925781 241.296875 256.054688 241.078125 256.191406 C 240.855469 256.328125 240.640625 256.46875 240.417969 256.601562 C 240.191406 256.726562 239.964844 256.855469 239.738281 256.980469 C 239.625 257.042969 239.507812 257.109375 239.398438 257.171875 L 239.046875 257.347656 C 238.816406 257.460938 238.578125 257.582031 238.34375 257.695312 C 238.105469 257.804688 237.867188 257.910156 237.628906 258.019531 C 237.148438 258.242188 236.652344 258.425781 236.160156 258.625 C 235.914062 258.722656 235.660156 258.804688 235.410156 258.894531 C 235.15625 258.980469 234.90625 259.074219 234.648438 259.144531 C 234.390625 259.222656 234.132812 259.300781 233.875 259.378906 C 233.617188 259.460938 233.355469 259.519531 233.089844 259.589844 C 232.570312 259.738281 232.035156 259.84375 231.496094 259.957031 C 231.230469 260.011719 230.957031 260.050781 230.683594 260.097656 C 230.414062 260.144531 230.140625 260.195312 229.863281 260.222656 C 229.585938 260.261719 229.3125 260.292969 229.035156 260.328125 C 228.746094 260.359375 228.441406 260.375 228.144531 260.398438 L 227.691406 260.429688 L 227.320312 260.441406 L 226.945312 260.453125 L 226.761719 260.460938 L 226.492188 260.460938 C 225.949219 260.449219 225.40625 260.441406 224.863281 260.429688 C 224.320312 260.429688 223.773438 260.371094 223.226562 260.332031 L 222.40625 260.265625 C 222.269531 260.253906 222.132812 260.246094 221.996094 260.230469 L 221.589844 260.175781 C 217.214844 259.65625 212.871094 258.367188 208.886719 256.546875 C 207.878906 256.105469 206.910156 255.609375 205.941406 255.117188 C 205.464844 254.859375 204.988281 254.601562 204.515625 254.34375 C 204.039062 254.085938 203.582031 253.804688 203.117188 253.539062 L 202.425781 253.132812 L 201.746094 252.714844 C 201.296875 252.433594 200.839844 252.15625 200.402344 251.867188 C 199.960938 251.578125 199.519531 251.289062 199.078125 251.003906 C 198.652344 250.710938 198.21875 250.417969 197.789062 250.125 C 197.625 250.011719 197.460938 249.898438 197.296875 249.78125 C 194.261719 247.675781 191.421875 245.507812 188.671875 243.453125 C 188.496094 243.316406 188.316406 243.183594 188.136719 243.050781 C 185.078125 240.773438 182.140625 238.628906 179.246094 236.820312 C 178.527344 236.351562 177.804688 235.933594 177.09375 235.507812 C 176.738281 235.292969 176.378906 235.109375 176.023438 234.90625 C 175.664062 234.714844 175.320312 234.503906 174.964844 234.324219 C 174.261719 233.960938 173.558594 233.574219 172.882812 233.269531 C 172.542969 233.109375 172.207031 232.953125 171.871094 232.792969 C 171.507812 232.640625 171.148438 232.488281 170.796875 232.335938 C 168.117188 231.15625 165.507812 230.472656 163.136719 230.09375 C 161.953125 229.910156 160.832031 229.832031 159.78125 229.789062 C 158.738281 229.769531 157.769531 229.796875 156.898438 229.882812 C 155.152344 230.050781 153.777344 230.363281 152.859375 230.621094 C 152.625 230.679688 152.421875 230.753906 152.246094 230.808594 C 152.066406 230.863281 151.917969 230.910156 151.796875 230.953125 C 151.589844 231.015625 151.46875 231.058594 151.441406 231.0625 C 151.464844 231.050781 151.574219 230.980469 151.757812 230.855469 C 151.859375 230.789062 151.988281 230.699219 152.144531 230.601562 C 152.300781 230.496094 152.476562 230.375 152.695312 230.261719 C 152.910156 230.140625 153.152344 230.007812 153.414062 229.859375 C 153.546875 229.777344 153.695312 229.714844 153.839844 229.644531 C 153.992188 229.574219 154.148438 229.5 154.3125 229.421875 C 154.632812 229.261719 154.992188 229.121094 155.378906 228.972656 C 155.570312 228.898438 155.765625 228.8125 155.976562 228.746094 C 156.1875 228.675781 156.402344 228.605469 156.621094 228.535156 C 157.0625 228.382812 157.539062 228.261719 158.042969 228.132812 C 158.292969 228.0625 158.554688 228.015625 158.820312 227.964844 C 159.085938 227.910156 159.355469 227.851562 159.632812 227.804688 C 160.195312 227.722656 160.777344 227.613281 161.390625 227.574219 C 161.695312 227.550781 162.007812 227.507812 162.324219 227.496094 C 162.644531 227.480469 162.96875 227.46875 163.296875 227.453125 C 164.613281 227.421875 166.019531 227.492188 167.496094 227.664062 C 167.863281 227.710938 168.238281 227.757812 168.613281 227.816406 C 168.992188 227.882812 169.371094 227.953125 169.753906 228.023438 C 170.140625 228.097656 170.523438 228.191406 170.917969 228.277344 L 171.210938 228.34375 C 171.300781 228.375 171.253906 228.359375 171.285156 228.363281 L 171.316406 228.375 L 171.386719 228.394531 L 171.527344 228.429688 C 171.710938 228.480469 171.898438 228.527344 172.082031 228.578125 C 172.460938 228.679688 172.835938 228.773438 173.21875 228.882812 C 173.617188 229.011719 174.019531 229.144531 174.429688 229.273438 C 175.257812 229.53125 176.039062 229.839844 176.859375 230.136719 C 178.476562 230.769531 180.121094 231.492188 181.757812 232.308594 C 183.414062 233.109375 185.039062 234.039062 186.6875 234.992188 C 187.101562 235.234375 187.511719 235.476562 187.925781 235.722656 C 188.332031 235.972656 188.742188 236.226562 189.152344 236.480469 C 189.289062 236.5625 189.421875 236.644531 189.554688 236.730469 C 189.832031 236.902344 190.105469 237.078125 190.382812 237.25 C 190.792969 237.511719 191.207031 237.773438 191.613281 238.039062 C 193.125 239.019531 194.636719 240.027344 196.148438 241.042969 C 197.511719 241.949219 198.875 242.863281 200.25 243.757812 C 200.660156 244.027344 201.074219 244.292969 201.484375 244.558594 C 202.648438 245.3125 203.824219 246.039062 205.007812 246.738281 C 205.511719 247.039062 206.023438 247.332031 206.53125 247.625 C 206.957031 247.859375 207.378906 248.113281 207.808594 248.335938 C 208.238281 248.5625 208.667969 248.789062 209.097656 249.019531 C 209.964844 249.449219 210.828125 249.886719 211.707031 250.265625 C 215.207031 251.867188 218.824219 252.984375 222.476562 253.539062 L 222.820312 253.597656 C 222.929688 253.613281 223.046875 253.625 223.164062 253.640625 L 223.847656 253.71875 C 224.304688 253.769531 224.761719 253.835938 225.222656 253.847656 C 225.679688 253.878906 226.136719 253.910156 226.59375 253.9375 L 226.632812 253.941406 C 226.632812 253.945312 226.730469 253.945312 226.601562 253.945312 L 226.695312 253.945312 L 226.882812 253.949219 L 227.257812 253.953125 L 227.628906 253.957031 L 227.925781 253.945312 L 228.515625 253.929688 C 228.730469 253.914062 228.945312 253.898438 229.160156 253.882812 C 229.375 253.875 229.589844 253.847656 229.804688 253.820312 C 230.015625 253.796875 230.230469 253.78125 230.445312 253.746094 C 230.871094 253.679688 231.296875 253.625 231.71875 253.535156 C 231.929688 253.488281 232.144531 253.460938 232.351562 253.410156 C 232.5625 253.359375 232.769531 253.3125 232.980469 253.261719 C 234.644531 252.859375 236.242188 252.277344 237.730469 251.578125 C 239.214844 250.871094 240.570312 250.015625 241.765625 249.0625 C 242.953125 248.101562 243.933594 247.007812 244.703125 245.847656 C 245.476562 244.683594 245.96875 243.429688 246.253906 242.15625 C 246.539062 240.882812 246.566406 239.585938 246.433594 238.335938 C 246.417969 238.179688 246.402344 238.027344 246.386719 237.871094 C 246.363281 237.714844 246.332031 237.5625 246.304688 237.410156 C 246.277344 237.257812 246.25 237.101562 246.222656 236.953125 L 246.179688 236.722656 L 246.195312 236.761719 L 246.195312 236.75 L 246.183594 236.722656 L 246.167969 236.660156 L 246.136719 236.539062 C 246.046875 236.222656 245.960938 235.871094 245.875 235.652344 C 245.828125 235.527344 245.789062 235.40625 245.75 235.277344 C 245.707031 235.152344 245.640625 235.019531 245.589844 234.890625 C 245.164062 233.855469 244.578125 232.945312 243.953125 232.164062 C 243.328125 231.375 242.640625 230.730469 241.964844 230.21875 C 240.613281 229.171875 239.296875 228.675781 238.386719 228.410156 C 238.15625 228.351562 237.953125 228.289062 237.773438 228.25 C 237.59375 228.21875 237.441406 228.191406 237.320312 228.167969 C 237.070312 228.125 236.941406 228.101562 236.941406 228.101562 C 236.941406 228.101562 237.074219 228.089844 237.320312 228.0625 C 237.449219 228.050781 237.605469 228.035156 237.792969 228.019531 C 237.976562 228.007812 238.195312 228.011719 238.445312 228.011719 C 238.566406 228.019531 238.699219 228.007812 238.839844 228.023438 C 238.976562 228.039062 239.121094 228.050781 239.277344 228.066406 C 239.425781 228.082031 239.589844 228.09375 239.753906 228.125 C 239.921875 228.15625 240.089844 228.191406 240.273438 228.226562 C 240.359375 228.242188 240.453125 228.261719 240.546875 228.28125 C 240.636719 228.300781 240.730469 228.332031 240.828125 228.355469 C 241.015625 228.410156 241.214844 228.464844 241.417969 228.527344 C 241.617188 228.59375 241.820312 228.675781 242.03125 228.753906 C 242.136719 228.792969 242.242188 228.839844 242.351562 228.878906 C 242.457031 228.929688 242.5625 228.980469 242.671875 229.027344 C 242.886719 229.136719 243.117188 229.234375 243.335938 229.359375 C 243.554688 229.488281 243.78125 229.617188 244.007812 229.75 C 244.234375 229.894531 244.457031 230.058594 244.6875 230.214844 C 244.746094 230.253906 244.804688 230.296875 244.859375 230.339844 C 244.917969 230.382812 244.972656 230.425781 245.027344 230.472656 C 245.140625 230.5625 245.253906 230.652344 245.367188 230.746094 C 246.277344 231.492188 247.15625 232.453125 247.925781 233.621094 C 248.019531 233.769531 248.125 233.902344 248.214844 234.070312 C 248.308594 234.234375 248.398438 234.402344 248.488281 234.570312 C 248.691406 234.933594 248.804688 235.210938 248.945312 235.519531 L 249 235.632812 L 249.023438 235.6875 L 249.042969 235.726562 C 249.046875 235.730469 249.054688 235.746094 249.070312 235.804688 L 249.164062 236.066406 C 249.230469 236.238281 249.292969 236.414062 249.355469 236.589844 C 249.417969 236.769531 249.488281 236.945312 249.542969 237.128906 C 249.597656 237.316406 249.648438 237.503906 249.699219 237.691406 C 250.117188 239.199219 250.328125 240.894531 250.203125 242.683594 " fill-opacity="1" fill-rule="nonzero"/><g fill="#545454" fill-opacity="1"><g transform="translate(78.420578, 251.258496)"><g><path d="M -9.5625 -15.140625 C -8.875 -14.535156 -7.992188 -14.25 -6.921875 -14.28125 C -5.847656 -14.3125 -4.742188 -14.515625 -3.609375 -14.890625 C -2.472656 -15.273438 -1.332031 -15.648438 -0.1875 -16.015625 C 0.945312 -16.378906 2.085938 -16.535156 3.234375 -16.484375 C 4.390625 -16.429688 5.375 -16.046875 6.1875 -15.328125 C 7.476562 -14.191406 8.113281 -12.785156 8.09375 -11.109375 C 8.070312 -9.441406 7.351562 -7.800781 5.9375 -6.1875 C 4.519531 -4.570312 2.804688 -3.238281 0.796875 -2.1875 L -0.3125 -3.15625 C 1.894531 -4.050781 3.488281 -5.0625 4.46875 -6.1875 C 5.457031 -7.3125 5.957031 -8.429688 5.96875 -9.546875 C 5.976562 -10.660156 5.492188 -11.644531 4.515625 -12.5 C 3.847656 -13.082031 3.015625 -13.347656 2.015625 -13.296875 C 1.023438 -13.253906 0.00390625 -13.039062 -1.046875 -12.65625 C -2.109375 -12.269531 -3.175781 -11.894531 -4.25 -11.53125 C -5.320312 -11.164062 -6.410156 -11.007812 -7.515625 -11.0625 C -8.617188 -11.125 -9.632812 -11.5625 -10.5625 -12.375 C -11.488281 -13.1875 -11.988281 -14.359375 -12.0625 -15.890625 C -12.132812 -17.421875 -11.453125 -19.003906 -10.015625 -20.640625 C -9.085938 -21.710938 -7.664062 -22.851562 -5.75 -24.0625 L -4.34375 -22.40625 C -7.125 -21.082031 -9.175781 -19.664062 -10.5 -18.15625 C -10.820312 -16.988281 -10.507812 -15.984375 -9.5625 -15.140625 Z M -9.5625 -15.140625 "/></g></g></g><g fill="#545454" fill-opacity="1"><g transform="translate(90.774056, 237.521508)"><g><path d="M 7.3125 -10.9375 C 8.1875 -9.800781 9.316406 -9.226562 10.703125 -9.21875 L 10.109375 -7.3125 L 6.6875 -7.5625 C 6.5 -6.394531 6.25 -5.46875 5.9375 -4.78125 C 5.632812 -4.09375 5.117188 -3.46875 4.390625 -2.90625 C 3.671875 -2.351562 2.796875 -2.117188 1.765625 -2.203125 C 0.734375 -2.285156 -0.304688 -3.007812 -1.359375 -4.375 L -7.390625 -12.21875 L -5.28125 -13.859375 L 0.84375 -5.890625 C 1.457031 -5.097656 2.066406 -4.609375 2.671875 -4.421875 C 3.285156 -4.234375 3.945312 -4.414062 4.65625 -4.96875 C 5.375 -5.519531 5.78125 -6.675781 5.875 -8.4375 L -0.890625 -17.21875 L 1.21875 -18.859375 Z M 7.3125 -10.9375 "/></g></g></g><g fill="#545454" fill-opacity="1"><g transform="translate(103.032297, 227.516879)"><g><path d="M 10.765625 -20.890625 C 13.015625 -21.910156 14.914062 -20.722656 16.46875 -17.328125 L 20.171875 -9.171875 L 17.78125 -8.09375 L 13.96875 -16.46875 C 13.238281 -18.0625 12.488281 -18.894531 11.71875 -18.96875 C 11.332031 -19 10.867188 -18.890625 10.328125 -18.640625 C 9.796875 -18.390625 9.289062 -17.953125 8.8125 -17.328125 C 8.34375 -16.710938 8.0625 -16.132812 7.96875 -15.59375 L 12.484375 -5.6875 L 10.046875 -4.578125 L 6.171875 -13.09375 C 5.710938 -14.101562 5.21875 -14.789062 4.6875 -15.15625 C 4.15625 -15.519531 3.59375 -15.566406 3 -15.296875 C 2.40625 -15.035156 1.898438 -14.644531 1.484375 -14.125 C 1.066406 -13.601562 0.753906 -13.132812 0.546875 -12.71875 C 0.347656 -12.3125 0.265625 -12.082031 0.296875 -12.03125 L 4.78125 -2.171875 L 2.375 -1.078125 L -1.703125 -10.046875 C -2.296875 -11.335938 -3.257812 -12.160156 -4.59375 -12.515625 L -3.625 -14.25 L -0.390625 -13.1875 C 0.171875 -14.351562 0.703125 -15.257812 1.203125 -15.90625 C 1.710938 -16.5625 2.332031 -17.054688 3.0625 -17.390625 C 4.71875 -18.140625 6.09375 -17.835938 7.1875 -16.484375 C 7.507812 -17.554688 8.007812 -18.476562 8.6875 -19.25 C 9.375 -20.03125 10.066406 -20.578125 10.765625 -20.890625 Z M 10.765625 -20.890625 "/></g></g></g><g fill="#545454" fill-opacity="1"><g transform="translate(125.498031, 217.330906)"><g><path d="M 16.03125 -17.171875 C 18.476562 -17.546875 19.988281 -15.882812 20.5625 -12.1875 L 21.90625 -3.34375 L 19.3125 -2.9375 L 17.921875 -12.03125 C 17.660156 -13.757812 17.160156 -14.769531 16.421875 -15.0625 C 16.078125 -15.195312 15.609375 -15.21875 15.015625 -15.125 C 14.429688 -15.039062 13.828125 -14.765625 13.203125 -14.296875 C 12.585938 -13.828125 12.160156 -13.335938 11.921875 -12.828125 L 13.5625 -2.0625 L 10.921875 -1.671875 L 9.515625 -10.921875 C 9.347656 -12.015625 9.054688 -12.8125 8.640625 -13.3125 C 8.234375 -13.8125 7.707031 -14.007812 7.0625 -13.90625 C 6.414062 -13.8125 5.816406 -13.570312 5.265625 -13.1875 C 4.722656 -12.800781 4.300781 -12.4375 4 -12.09375 C 3.695312 -11.757812 3.550781 -11.5625 3.5625 -11.5 L 5.1875 -0.796875 L 2.578125 -0.390625 L 1.09375 -10.140625 C 0.875 -11.535156 0.171875 -12.582031 -1.015625 -13.28125 L 0.390625 -14.6875 L 3.21875 -12.796875 C 4.070312 -13.765625 4.832031 -14.492188 5.5 -14.984375 C 6.164062 -15.472656 6.890625 -15.773438 7.671875 -15.890625 C 9.472656 -16.171875 10.71875 -15.503906 11.40625 -13.890625 C 12 -14.835938 12.726562 -15.59375 13.59375 -16.15625 C 14.457031 -16.71875 15.269531 -17.054688 16.03125 -17.171875 Z M 16.03125 -17.171875 "/></g></g></g><g fill="#545454" fill-opacity="1"><g transform="translate(150.366411, 214.172366)"><g><path d="M 3.859375 -7.453125 C 3.691406 -5.191406 4.078125 -3.523438 5.015625 -2.453125 C 5.960938 -1.390625 7.160156 -0.800781 8.609375 -0.6875 C 10.054688 -0.582031 11.421875 -0.769531 12.703125 -1.25 L 12.609375 -0.140625 C 10.816406 0.703125 9.140625 1.066406 7.578125 0.953125 C 5.546875 0.796875 3.953125 0.0546875 2.796875 -1.265625 C 1.640625 -2.585938 1.148438 -4.414062 1.328125 -6.75 C 1.503906 -9.09375 2.335938 -10.910156 3.828125 -12.203125 C 5.328125 -13.492188 7.0625 -14.066406 9.03125 -13.921875 C 10.550781 -13.796875 11.773438 -13.09375 12.703125 -11.8125 C 13.640625 -10.539062 14.023438 -8.832031 13.859375 -6.6875 Z M 7.3125 -12.578125 C 6.5625 -12.285156 5.890625 -11.765625 5.296875 -11.015625 C 4.710938 -10.265625 4.300781 -9.378906 4.0625 -8.359375 L 11.390625 -7.8125 C 11.390625 -8.695312 11.242188 -9.460938 10.953125 -10.109375 C 10.660156 -10.765625 10.285156 -11.265625 9.828125 -11.609375 C 9.003906 -12.191406 8.164062 -12.515625 7.3125 -12.578125 Z M 7.3125 -12.578125 "/></g></g></g><g fill="#545454" fill-opacity="1"><g transform="translate(166.438964, 215.68831)"><g><path d="M 4.515625 1.0625 L 1.96875 0.453125 L 5.21875 -13.359375 L 6.984375 -12.9375 L 7.0625 -10.1875 C 7.632812 -10.820312 8.441406 -11.347656 9.484375 -11.765625 C 10.523438 -12.179688 11.53125 -12.351562 12.5 -12.28125 L 12.3125 -10.109375 C 11.550781 -10.296875 10.644531 -10.257812 9.59375 -10 C 8.539062 -9.75 7.632812 -9.410156 6.875 -8.984375 Z M 4.515625 1.0625 "/></g></g></g><g fill="#545454" fill-opacity="1"><g transform="translate(181.592246, 289.034104)"><g><path d="M 11.90625 3.5 C 8.757812 2.675781 6.332031 1.132812 4.625 -1.125 C 2.925781 -3.382812 2.492188 -6.101562 3.328125 -9.28125 C 3.816406 -11.144531 4.609375 -12.710938 5.703125 -13.984375 C 6.804688 -15.253906 8.035156 -16.148438 9.390625 -16.671875 C 12.160156 -17.773438 15 -17.945312 17.90625 -17.1875 C 19.570312 -16.75 21.242188 -15.988281 22.921875 -14.90625 L 22.0625 -12.90625 C 21.21875 -13.5625 20.5625 -14.054688 20.09375 -14.390625 C 18.71875 -15.335938 17.257812 -16.015625 15.71875 -16.421875 C 13.46875 -16.484375 11.554688 -15.859375 9.984375 -14.546875 C 8.421875 -13.234375 7.320312 -11.359375 6.6875 -8.921875 C 5.90625 -5.953125 6.082031 -3.453125 7.21875 -1.421875 C 8.363281 0.597656 10.210938 1.941406 12.765625 2.609375 C 15.316406 3.273438 17.359375 3.21875 18.890625 2.4375 L 18.453125 4.109375 C 16.535156 4.347656 14.351562 4.144531 11.90625 3.5 Z M 11.90625 3.5 "/></g></g></g><g fill="#545454" fill-opacity="1"><g transform="translate(206.185297, 294.669839)"><g><path d="M 9.09375 -14.140625 C 10.925781 -14.054688 12.414062 -13.359375 13.5625 -12.046875 C 14.707031 -10.734375 15.226562 -8.976562 15.125 -6.78125 C 15.050781 -5.394531 14.75 -4.179688 14.21875 -3.140625 C 13.695312 -2.097656 13.03125 -1.296875 12.21875 -0.734375 C 10.6875 0.316406 9.003906 0.796875 7.171875 0.703125 C 5.347656 0.617188 3.863281 -0.0703125 2.71875 -1.375 C 1.570312 -2.6875 1.050781 -4.441406 1.15625 -6.640625 C 1.226562 -8.035156 1.523438 -9.253906 2.046875 -10.296875 C 2.566406 -11.335938 3.226562 -12.140625 4.03125 -12.703125 C 5.570312 -13.753906 7.257812 -14.234375 9.09375 -14.140625 Z M 7.796875 -0.328125 C 8.722656 -0.273438 9.523438 -0.59375 10.203125 -1.28125 C 11.429688 -2.476562 12.09375 -4.113281 12.1875 -6.1875 C 12.289062 -8.269531 12.015625 -9.910156 11.359375 -11.109375 C 10.703125 -12.304688 9.566406 -12.941406 7.953125 -13.015625 C 6.753906 -12.609375 5.816406 -11.835938 5.140625 -10.703125 C 4.472656 -9.578125 4.097656 -8.191406 4.015625 -6.546875 C 3.941406 -4.910156 4.210938 -3.476562 4.828125 -2.25 C 5.441406 -1.03125 6.429688 -0.390625 7.796875 -0.328125 Z M 7.796875 -0.328125 "/></g></g></g><g fill="#545454" fill-opacity="1"><g transform="translate(227.048699, 295.165801)"><g><path d="M 3.3125 -12.765625 C 4.070312 -13.722656 4.75 -14.429688 5.34375 -14.890625 C 5.945312 -15.359375 6.691406 -15.65625 7.578125 -15.78125 C 8.472656 -15.914062 9.347656 -15.679688 10.203125 -15.078125 C 11.054688 -14.484375 11.601562 -13.328125 11.84375 -11.609375 L 13.234375 -1.875 L 10.59375 -1.5 L 9.25 -10.921875 C 9.113281 -11.929688 8.828125 -12.664062 8.390625 -13.125 C 7.960938 -13.59375 7.304688 -13.757812 6.421875 -13.625 C 5.546875 -13.5 4.601562 -12.773438 3.59375 -11.453125 L 5.125 -0.734375 L 2.484375 -0.359375 L 1.09375 -10.125 C 0.894531 -11.519531 0.203125 -12.570312 -0.984375 -13.28125 L 0.453125 -14.6875 Z M 3.3125 -12.765625 "/></g></g></g><g fill="#545454" fill-opacity="1"><g transform="translate(247.310722, 291.672769)"><g><path d="M 5 -16.4375 L 5.328125 -15.359375 L 1.703125 -14.21875 L 5.609375 -1.75 L 3.09375 -0.96875 L -0.8125 -13.4375 L -3.421875 -13.140625 L -3.609375 -13.75 L -1.125 -14.515625 C -1.664062 -16.671875 -1.640625 -18.578125 -1.046875 -20.234375 C -0.453125 -21.890625 0.703125 -22.984375 2.421875 -23.515625 C 2.972656 -23.691406 3.765625 -23.8125 4.796875 -23.875 L 5.109375 -21.84375 C 4.597656 -21.9375 3.96875 -21.960938 3.21875 -21.921875 C 2.46875 -21.890625 1.914062 -21.816406 1.5625 -21.703125 C 0.988281 -21.148438 0.734375 -20.234375 0.796875 -18.953125 C 0.859375 -17.679688 1.050781 -16.460938 1.375 -15.296875 Z M 5 -16.4375 "/></g></g></g></svg>